# Blender v3.0.0 OBJ File: ''
# www.blender.org
mtllib bigtreetrunk.mtl
o Cylinder
v 0.000000 -1.000000 -1.000000
v -0.000000 32.143959 -0.459013
v 0.951057 -1.000000 -0.309017
v 0.436547 32.143959 -0.141843
v 0.587785 -1.000000 0.809017
v 0.269801 32.143959 0.371349
v -0.587785 -1.000000 0.809017
v -0.269801 32.143959 0.371349
v -0.951056 -1.000000 -0.309017
v -0.436547 32.143959 -0.141843
v -0.044569 -1.207210 -1.109863
v 1.015247 -1.207210 -0.339862
v 0.610433 -1.207210 0.906026
v -0.699572 -1.207210 0.906026
v -1.104385 -1.207210 -0.339862
v -0.000000 3.142995 -0.932377
v -0.000000 7.285990 -0.864753
v -0.000000 11.428986 -0.797130
v 0.033936 15.702436 -0.470874
v -0.000000 19.714975 -0.661883
v -0.000000 23.857971 -0.594260
v 0.047075 28.098930 -0.170609
v 0.547936 28.098930 0.193288
v 0.565175 23.857969 -0.183636
v 0.629488 19.714973 -0.204533
v 0.727738 15.702435 0.033202
v 0.758116 11.428984 -0.246327
v 0.822429 7.285989 -0.267223
v 0.886743 3.142994 -0.288120
v 0.356624 28.098930 0.782085
v 0.349297 23.857969 0.480766
v 0.389045 19.714973 0.535475
v 0.462729 15.702435 0.848816
v 0.468541 11.428984 0.644892
v 0.508289 7.285989 0.699600
v 0.548037 3.142994 0.754309
v -0.262474 28.098930 0.782085
v -0.349297 23.857969 0.480766
v -0.389045 19.714973 0.535475
v -0.394858 15.702435 0.848815
v -0.468541 11.428984 0.644892
v -0.508289 7.285989 0.699600
v -0.548037 3.142994 0.754308
v -0.453786 28.098930 0.193288
v -0.565175 23.857969 -0.183636
v -0.629488 19.714973 -0.204533
v -0.659866 15.702435 0.033202
v -0.758116 11.428984 -0.246327
v -0.822429 7.285989 -0.267224
v -0.886743 3.142994 -0.288120
v 2.992656 20.363670 -1.386105
v 3.232415 20.363670 -1.211910
v 3.140835 20.363670 -0.930056
v 2.844476 20.363670 -0.930056
v 2.752896 20.363670 -1.211910
v 3.399299 22.454384 -1.469512
v 3.500078 22.454384 -1.396291
v 3.461584 22.454384 -1.277818
v 3.337014 22.454384 -1.277818
v 3.298520 22.454384 -1.396291
v -4.069541 15.718745 1.602976
v -3.892967 15.718745 1.731264
v -3.960412 15.718745 1.938839
v -4.178669 15.718745 1.938839
v -4.246114 15.718745 1.731264
v -3.677600 27.574459 1.811293
v -3.440011 27.574457 1.983912
v -3.530762 27.574457 2.263215
v -3.824439 27.574457 2.263215
v -3.915190 27.574457 1.983912
v -5.516148 29.850912 2.278774
v -5.415602 29.850912 2.351825
v -5.454007 29.850912 2.470024
v -5.578290 29.850912 2.470024
v -5.616694 29.850912 2.351825
vt 1.000000 0.937500
vt 1.000000 1.000000
vt 0.800000 1.000000
vt 0.800000 0.937500
vt 0.600000 1.000000
vt 0.600000 0.937500
vt 0.400000 1.000000
vt 0.400000 0.937500
vt 0.478254 0.324164
vt 0.250000 0.490000
vt 0.021746 0.324164
vt 0.108932 0.055836
vt 0.391068 0.055836
vt 0.200000 1.000000
vt 0.200000 0.937500
vt 0.000000 1.000000
vt 0.000000 0.937500
vt 0.600000 0.500000
vt 0.400000 0.500000
vt 0.400000 0.500000
vt 0.600000 0.500000
vt 0.750000 0.490000
vt 0.978254 0.324164
vt 0.891068 0.055836
vt 0.608932 0.055836
vt 0.521746 0.324164
vt 0.200000 0.500000
vt 0.200000 0.500000
vt 0.800000 0.500000
vt 0.800000 0.500000
vt 0.000000 0.500000
vt 0.000000 0.500000
vt 1.000000 0.500000
vt 1.000000 0.500000
vt 0.200000 0.562500
vt 0.000000 0.562500
vt 0.200000 0.625000
vt 0.000000 0.625000
vt 0.200000 0.687500
vt 0.000000 0.687500
vt 0.200000 0.750000
vt 0.000000 0.750000
vt 0.200000 0.812500
vt 0.000000 0.812500
vt 0.200000 0.875000
vt 0.000000 0.875000
vt 0.400000 0.562500
vt 0.400000 0.625000
vt 0.400000 0.687500
vt 0.400000 0.750000
vt 0.400000 0.812500
vt 0.400000 0.875000
vt 0.600000 0.562500
vt 0.600000 0.625000
vt 0.600000 0.687500
vt 0.600000 0.750000
vt 0.600000 0.812500
vt 0.600000 0.875000
vt 0.800000 0.562500
vt 0.800000 0.625000
vt 0.800000 0.687500
vt 0.800000 0.750000
vt 0.800000 0.812500
vt 0.800000 0.875000
vt 1.000000 0.562500
vt 1.000000 0.625000
vt 1.000000 0.687500
vt 1.000000 0.750000
vt 1.000000 0.812500
vt 1.000000 0.875000
vt 0.000000 0.750000
vt 0.200000 0.750000
vt 0.400000 0.750000
vt 0.600000 0.750000
vt 0.800000 0.750000
vt 1.000000 0.750000
vt 0.600000 0.750000
vt 0.800000 0.750000
vt 0.200000 0.750000
vt 0.400000 0.750000
vt 1.000000 0.750000
vt 0.000000 0.750000
vt 0.200000 0.687500
vt 0.400000 0.687500
vt 0.600000 0.687500
vt 0.800000 0.687500
vt 1.000000 0.687500
vt 0.000000 0.687500
vt 0.000000 0.875000
vt 0.200000 0.875000
vt 0.400000 0.875000
vt 0.600000 0.875000
vt 0.800000 0.875000
vt 1.000000 0.875000
vt 0.800000 0.875000
vt 1.000000 0.875000
vt 0.400000 0.875000
vt 0.600000 0.875000
vt 0.000000 0.875000
vt 0.200000 0.875000
vn 0.5870 -0.0508 -0.8080
vn 0.9498 0.0517 0.3086
vn -0.0000 0.1010 0.9949
vn 0.0000 1.0000 0.0000
vn -0.9506 0.0296 0.3089
vn -0.5866 -0.0644 -0.8073
vn -0.0000 0.4240 0.9057
vn 0.0000 -1.0000 -0.0000
vn -0.7946 0.5495 0.2582
vn 0.9230 0.2413 0.2999
vn -0.5139 0.4855 -0.7073
vn 0.5626 0.2896 -0.7744
vn -0.5877 0.0132 -0.8089
vn -0.5865 0.0663 -0.8072
vn -0.5872 -0.0434 -0.8083
vn -0.5856 0.0870 -0.8059
vn -0.9510 0.0132 0.3090
vn -0.9511 0.0017 0.3090
vn -0.9507 0.0255 0.3089
vn -0.9511 -0.0025 0.3090
vn -0.0000 0.0132 0.9999
vn -0.0000 -0.0477 0.9989
vn -0.0000 0.0779 0.9970
vn 0.0000 -0.0709 0.9975
vn 0.9510 0.0132 0.3090
vn 0.9510 -0.0135 0.3090
vn 0.9502 0.0416 0.3088
vn 0.9508 -0.0236 0.3089
vn 0.5877 0.0132 -0.8089
vn 0.5868 0.0570 -0.8077
vn 0.5875 -0.0335 -0.8086
vn 0.5862 0.0741 -0.8068
vn 0.5747 -0.2095 0.7911
vn 0.7503 -0.6145 -0.2438
vn 0.0000 -0.3565 -0.9343
vn -0.8742 0.3939 -0.2840
vn -0.5189 0.4696 0.7143
vn -0.9468 0.0941 -0.3076
vn 0.9169 -0.2656 -0.2979
vn -0.5816 0.1450 0.8005
vn 0.0000 -0.1641 -0.9864
vn 0.5858 -0.0818 0.8063
vn 0.7014 0.6754 -0.2279
vn 0.0000 0.2888 -0.9574
vn -0.7109 -0.6643 -0.2310
vn -0.4135 -0.7107 0.5691
vn 0.5846 0.1044 0.8046
vn 0.5868 0.0579 0.8077
vn 0.6600 0.7200 -0.2144
vn 0.0000 0.4324 -0.9017
vn -0.7265 -0.6453 -0.2361
vn -0.3944 -0.7415 0.5428
vn -0.4949 -0.5396 0.6812
vn 0.0000 0.0905 -0.9959
vn 0.5617 0.2949 0.7730
vn -0.7516 -0.6128 -0.2442
vn 0.7569 0.6055 -0.2459
usemtl None
s off
f 22/1/1 2/2/1 4/3/1 23/4/1
f 23/4/2 4/3/2 6/5/2 30/6/2
f 30/6/3 6/5/3 8/7/3 37/8/3
f 4/9/4 2/10/4 10/11/4 8/12/4 6/13/4
f 37/8/5 8/7/5 10/14/5 44/15/5
f 44/15/6 10/14/6 2/16/6 22/17/6
f 5/18/7 7/19/7 14/20/7 13/21/7
f 11/22/8 12/23/8 13/24/8 14/25/8 15/26/8
f 7/19/9 9/27/9 15/28/9 14/20/9
f 3/29/10 5/18/10 13/21/10 12/30/10
f 9/27/11 1/31/11 11/32/11 15/28/11
f 1/33/12 3/29/12 12/30/12 11/34/12
f 9/27/13 50/35/13 16/36/13 1/31/13
f 50/35/13 49/37/13 17/38/13 16/36/13
f 49/37/13 48/39/13 18/40/13 17/38/13
f 48/39/14 47/41/14 19/42/14 18/40/14
f 47/41/15 46/43/15 20/44/15 19/42/15
f 46/43/13 45/45/13 21/46/13 20/44/13
f 45/45/16 44/15/16 22/17/16 21/46/16
f 7/19/17 43/47/17 50/35/17 9/27/17
f 43/47/17 42/48/17 49/37/17 50/35/17
f 42/48/17 41/49/17 48/39/17 49/37/17
f 41/49/18 40/50/18 47/41/18 48/39/18
f 40/50/19 39/51/19 46/43/19 47/41/19
f 39/51/17 38/52/17 45/45/17 46/43/17
f 38/52/20 37/8/20 44/15/20 45/45/20
f 5/18/21 36/53/21 43/47/21 7/19/21
f 36/53/21 35/54/21 42/48/21 43/47/21
f 35/54/21 34/55/21 41/49/21 42/48/21
f 34/55/22 33/56/22 40/50/22 41/49/22
f 33/56/23 32/57/23 39/51/23 40/50/23
f 32/57/21 31/58/21 38/52/21 39/51/21
f 31/58/24 30/6/24 37/8/24 38/52/24
f 3/29/25 29/59/25 36/53/25 5/18/25
f 29/59/25 28/60/25 35/54/25 36/53/25
f 28/60/25 27/61/25 34/55/25 35/54/25
f 27/61/26 26/62/26 33/56/26 34/55/26
f 26/62/27 25/63/27 32/57/27 33/56/27
f 25/63/25 24/64/25 31/58/25 32/57/25
f 24/64/28 23/4/28 30/6/28 31/58/28
f 1/33/29 16/65/29 29/59/29 3/29/29
f 16/65/29 17/66/29 28/60/29 29/59/29
f 17/66/29 18/67/29 27/61/29 28/60/29
f 18/67/30 19/68/30 26/62/30 27/61/30
f 19/68/31 20/69/31 25/63/31 26/62/31
f 20/69/29 21/70/29 24/64/29 25/63/29
f 21/70/32 22/1/32 23/4/32 24/64/32
f 47/41/33 19/42/33 51/71/33 55/72/33
f 40/50/34 47/41/34 55/72/34 54/73/34
f 33/56/35 40/50/35 54/73/35 53/74/35
f 26/62/36 33/56/36 53/74/36 52/75/36
f 19/68/37 26/62/37 52/75/37 51/76/37
f 52/75/38 53/74/38 58/77/38 57/78/38
f 54/73/39 55/72/39 60/79/39 59/80/39
f 51/76/40 52/75/40 57/78/40 56/81/40
f 53/74/41 54/73/41 59/80/41 58/77/41
f 55/72/42 51/71/42 56/82/42 60/79/42
f 41/49/43 48/39/43 65/83/43 64/84/43
f 34/55/44 41/49/44 64/84/44 63/85/44
f 27/61/45 34/55/45 63/85/45 62/86/45
f 18/67/46 27/61/46 62/86/46 61/87/46
f 48/39/47 18/40/47 61/88/47 65/83/47
f 45/45/48 21/46/48 66/89/48 70/90/48
f 38/52/49 45/45/49 70/90/49 69/91/49
f 31/58/50 38/52/50 69/91/50 68/92/50
f 24/64/51 31/58/51 68/92/51 67/93/51
f 21/70/52 24/64/52 67/93/52 66/94/52
f 66/94/53 67/93/53 72/95/53 71/96/53
f 68/92/54 69/91/54 74/97/54 73/98/54
f 70/90/55 66/89/55 71/99/55 75/100/55
f 67/93/56 68/92/56 73/98/56 72/95/56
f 69/91/57 70/90/57 75/100/57 74/97/57
f 75/100/8 71/96/8 72/95/8 73/98/8 74/97/8
f 63/85/8 64/84/8 61/87/8 62/86/8
