# Blender v3.0.0 OBJ File: ''
# www.blender.org
mtllib leave4.mtl
o Plane
v -1.312559 0.000000 1.312559
v 1.312559 0.000000 1.312559
v -0.846046 0.023178 -1.312559
v 0.846046 0.023178 -1.312559
v 1.312559 0.000000 1.312559
v -1.312559 0.000000 1.312559
v 0.430395 -0.344968 5.167760
v -0.346616 -0.344968 5.167760
v -0.846046 0.107246 -1.312559
v -1.312559 0.130424 1.312559
v 1.312559 0.130424 1.312559
v 0.846046 0.107246 -1.312559
v -1.312559 0.130424 1.312559
v 1.312559 0.130424 1.312559
v -0.346616 -0.214545 5.167760
v 0.430395 -0.214545 5.167760
v 0.732002 0.400921 -3.327715
v -0.846046 0.023178 -3.083874
v 0.732002 0.484989 -3.327715
v -0.960091 0.484989 -3.327715
v 0.854724 -0.179035 3.313373
v -0.811243 -0.179035 3.313373
v 0.854724 -0.048612 3.313373
v -0.811243 -0.048612 3.313373
v -1.050918 0.012999 -0.159722
v 1.067282 0.016589 -0.116214
v -1.050918 0.117425 -0.159722
v 1.067282 0.121014 -0.116214
v 0.499706 -0.165520 3.139389
v 0.499706 -0.035096 3.139389
v -0.875988 -0.155913 3.054971
v -0.875988 -0.025490 3.054971
v 0.940877 -0.145346 2.936873
v 0.940877 -0.014922 2.936873
v -0.905578 -0.145346 2.936873
v -0.905578 -0.014922 2.936873
v 0.900211 0.012622 -0.292541
v 0.900211 0.112751 -0.292541
v -1.007689 0.015147 -0.402981
v -1.007689 0.115277 -0.402981
v 0.998800 0.018628 -0.486538
v 0.998800 0.116752 -0.486538
v -0.987501 0.016150 -0.516578
v -0.987501 0.114274 -0.516578
vt 0.000000 0.696783
vt 0.000000 1.000000
vt 1.000000 1.000000
vt 1.000000 0.696783
vt 1.000000 0.000000
vt 1.000000 0.000000
vt 0.000000 0.000000
vt 0.000000 0.000000
vt 1.000000 0.000000
vt 1.000000 0.000000
vt 0.000000 0.000000
vt 0.000000 0.000000
vt 0.000000 0.696783
vt 1.000000 0.696783
vt 1.000000 1.000000
vt 0.000000 1.000000
vt 1.000000 0.000000
vt 0.000000 0.000000
vt 0.000000 0.000000
vt 1.000000 0.000000
vt 1.000000 0.000000
vt 0.000000 0.000000
vt 0.000000 0.000000
vt 1.000000 0.000000
vt 0.000000 0.560844
vt 0.000000 0.560844
vt 1.000000 1.000000
vt 0.000000 1.000000
vt 1.000000 0.000000
vt 1.000000 0.000000
vt 1.000000 1.000000
vt 0.000000 1.000000
vt 0.000000 0.000000
vt 0.000000 0.000000
vt 1.000000 0.000000
vt 1.000000 0.000000
vt 0.000000 0.653509
vt 0.000000 0.653509
vt 1.000000 0.560844
vt 1.000000 0.560844
vt 0.000000 0.000000
vt 0.000000 0.000000
vt 1.000000 0.653509
vt 1.000000 0.653509
vn 0.0007 -1.0000 -0.0071
vn 0.0000 0.0000 1.0000
vn 0.0000 -0.9960 -0.0891
vn -0.0006 0.9999 -0.0102
vn 0.0000 0.9960 0.0891
vn 0.9833 0.0000 -0.1818
vn -0.9846 0.0000 -0.1750
vn -0.9700 0.0000 0.2430
vn 0.0000 0.9829 0.1842
vn 0.9748 0.0000 0.2231
vn -0.0204 -0.4113 -0.9113
vn 0.9984 0.0000 -0.0565
vn 0.1067 -0.9891 -0.1019
vn -0.9797 -0.2004 0.0095
vn 0.0008 0.9965 0.0836
vn -0.0008 -0.9965 -0.0836
vn 0.9856 0.0000 -0.1692
vn -0.0007 1.0000 -0.0077
vn 0.0009 -0.9999 -0.0102
vn -0.0005 -0.9954 -0.0960
vn 0.0005 0.9954 0.0960
vn 0.4401 0.0000 -0.8980
vn 0.4172 0.0000 0.9088
vn 0.7259 0.0000 -0.6878
vn 0.0007 0.9997 -0.0250
vn 0.0001 -1.0000 0.0043
vn 0.8915 0.0000 0.4530
vn -0.0003 1.0000 0.0096
vn 0.0008 -0.9997 -0.0225
usemtl None
s off
f 43/1/1 3/2/1 4/3/1 41/4/1
f 2/5/2 5/6/2 6/7/2 1/8/2
f 21/9/3 7/10/3 8/11/3 22/12/3
f 44/13/4 42/14/4 12/15/4 9/16/4
f 11/17/2 10/18/2 13/19/2 14/20/2
f 23/21/5 24/22/5 15/23/5 16/24/5
f 5/6/2 2/5/2 11/17/2 14/20/2
f 1/8/2 6/7/2 13/19/2 10/18/2
f 41/4/6 4/3/6 12/15/6 42/14/6
f 25/25/7 1/8/7 10/18/7 27/26/7
f 22/12/8 8/11/8 15/23/8 24/22/8
f 8/11/2 7/10/2 16/24/2 15/23/2
f 9/16/9 12/15/9 19/27/9 20/28/9
f 33/29/10 5/6/10 14/20/10 34/30/10
f 17/31/11 18/32/11 20/28/11 19/27/11
f 12/15/12 4/3/12 17/31/12 19/27/12
f 4/3/13 3/2/13 18/32/13 17/31/13
f 3/2/14 9/16/14 20/28/14 18/32/14
f 7/10/10 21/9/10 23/21/10 16/24/10
f 31/33/8 22/12/8 24/22/8 32/34/8
f 30/35/15 32/34/15 24/22/15 23/21/15
f 29/36/16 21/9/16 22/12/16 31/33/16
f 39/37/7 25/25/7 27/26/7 40/38/7
f 2/5/17 26/39/17 28/40/17 11/17/17
f 10/18/18 11/17/18 28/40/18 27/26/18
f 1/8/19 25/25/19 26/39/19 2/5/19
f 33/29/20 29/36/20 31/33/20 35/41/20
f 34/30/21 36/42/21 32/34/21 30/35/21
f 35/41/8 31/33/8 32/34/8 36/42/8
f 21/9/22 29/36/22 30/35/22 23/21/22
f 6/7/8 35/41/8 36/42/8 13/19/8
f 14/20/5 13/19/5 36/42/5 34/30/5
f 5/6/3 33/29/3 35/41/3 6/7/3
f 29/36/23 33/29/23 34/30/23 30/35/23
f 43/1/7 39/37/7 40/38/7 44/13/7
f 26/39/24 37/43/24 38/44/24 28/40/24
f 27/26/25 28/40/25 38/44/25 40/38/25
f 25/25/26 39/37/26 37/43/26 26/39/26
f 3/2/7 43/1/7 44/13/7 9/16/7
f 37/43/27 41/4/27 42/14/27 38/44/27
f 40/38/28 38/44/28 42/14/28 44/13/28
f 39/37/29 43/1/29 41/4/29 37/43/29
