# Blender v3.0.0 OBJ File: ''
# www.blender.org
mtllib leave2.mtl
o Plane.002_Plane.003
v 6.884972 -0.525421 1.752552
v 9.560963 -0.525421 1.752552
v 7.360525 -0.501794 -0.923439
v 9.085409 -0.501794 -0.923439
v 9.560963 -0.525421 1.752552
v 6.884972 -0.525421 1.752552
v 8.661703 -0.877074 5.682463
v 7.869635 -0.877074 5.682463
v 7.360525 -0.416096 -0.923439
v 6.884972 -0.392470 1.752552
v 9.560963 -0.392470 1.752552
v 9.085409 -0.416096 -0.923439
v 6.884972 -0.392470 1.752552
v 9.560963 -0.392470 1.752552
v 7.869635 -0.744123 5.682463
v 8.661703 -0.744123 5.682463
v 8.124912 -0.436958 -3.196478
v 7.280960 -0.638978 -3.066070
v 8.124912 -0.391998 -3.196478
v 7.219968 -0.391998 -3.196478
v 9.094255 -0.707926 3.792140
v 7.396002 -0.707926 3.792140
v 9.094255 -0.574974 3.792140
v 7.396002 -0.574974 3.792140
v 7.151683 -0.512170 0.251740
v 9.310932 -0.508510 0.296091
v 7.151683 -0.405721 0.251740
v 9.310932 -0.402061 0.296091
v 8.732357 -0.694149 3.614784
v 8.732357 -0.561197 3.614784
v 7.771812 -0.684355 3.528730
v 7.771812 -0.551404 3.528730
v 9.182077 -0.673583 3.408343
v 9.182077 -0.540632 3.408343
v 7.299840 -0.673583 3.408343
v 7.299840 -0.540632 3.408343
v 9.140624 -0.512555 0.116347
v 9.140624 -0.410484 0.116347
v 7.326632 -0.509980 0.003767
v 7.326632 -0.407910 0.003767
v 9.241123 -0.506431 -0.081410
v 9.241123 -0.406406 -0.081410
v 7.216329 -0.508958 -0.112032
v 7.216329 -0.408932 -0.112032
vt 0.000000 0.696783
vt 0.000000 1.000000
vt 1.000000 1.000000
vt 1.000000 0.696783
vt 1.000000 0.000000
vt 1.000000 0.000000
vt 0.000000 0.000000
vt 0.000000 0.000000
vt 1.000000 0.000000
vt 1.000000 0.000000
vt 0.000000 0.000000
vt 0.000000 0.000000
vt 0.000000 0.696783
vt 1.000000 0.696783
vt 1.000000 1.000000
vt 0.000000 1.000000
vt 1.000000 0.000000
vt 0.000000 0.000000
vt 0.000000 0.000000
vt 1.000000 0.000000
vt 1.000000 0.000000
vt 0.000000 0.000000
vt 0.000000 0.000000
vt 1.000000 0.000000
vt 0.000000 0.560844
vt 0.000000 0.560844
vt 1.000000 1.000000
vt 0.000000 1.000000
vt 1.000000 0.000000
vt 1.000000 0.000000
vt 1.000000 1.000000
vt 0.000000 1.000000
vt 0.000000 0.000000
vt 0.000000 0.000000
vt 1.000000 0.000000
vt 1.000000 0.000000
vt 0.000000 0.653509
vt 0.000000 0.653509
vt 1.000000 0.560844
vt 1.000000 0.560844
vt 0.000000 0.000000
vt 0.000000 0.000000
vt 1.000000 0.653509
vt 1.000000 0.653509
vn 0.0007 -1.0000 -0.0071
vn 0.0000 0.0000 1.0000
vn 0.0000 -0.9960 -0.0891
vn -0.0006 0.9999 -0.0102
vn 0.0000 0.9960 0.0891
vn 0.9833 0.0000 -0.1818
vn -0.9846 0.0000 -0.1750
vn -0.9700 0.0000 0.2430
vn 0.0000 0.9999 0.0106
vn 0.9748 0.0000 0.2231
vn -0.0204 -0.4113 -0.9113
vn 0.9211 0.0000 -0.3892
vn 0.0783 -0.9969 -0.0021
vn -0.9857 -0.1598 0.0532
vn -0.5740 0.0000 -0.8189
vn 0.0009 0.9964 0.0845
vn -0.0009 -0.9964 -0.0845
vn -0.8171 0.0000 -0.5765
vn 0.9856 0.0000 -0.1692
vn -0.0007 1.0000 -0.0077
vn 0.0009 -0.9999 -0.0102
vn -0.0005 -0.9954 -0.0954
vn 0.0005 0.9954 0.0954
vn -0.2472 0.0000 0.9690
vn 0.4401 0.0000 -0.8980
vn 0.4172 0.0000 0.9088
vn -0.7241 0.0000 0.6897
vn 0.7259 0.0000 -0.6878
vn 0.0007 0.9997 -0.0248
vn 0.0001 -1.0000 0.0043
vn 0.8915 0.0000 0.4530
vn -0.0004 1.0000 0.0098
vn 0.0008 -0.9997 -0.0228
usemtl None
s off
f 43/1/1 3/2/1 4/3/1 41/4/1
f 2/5/2 5/6/2 6/7/2 1/8/2
f 21/9/3 7/10/3 8/11/3 22/12/3
f 44/13/4 42/14/4 12/15/4 9/16/4
f 11/17/2 10/18/2 13/19/2 14/20/2
f 23/21/5 24/22/5 15/23/5 16/24/5
f 5/6/2 2/5/2 11/17/2 14/20/2
f 1/8/2 6/7/2 13/19/2 10/18/2
f 41/4/6 4/3/6 12/15/6 42/14/6
f 25/25/7 1/8/7 10/18/7 27/26/7
f 22/12/8 8/11/8 15/23/8 24/22/8
f 8/11/2 7/10/2 16/24/2 15/23/2
f 9/16/9 12/15/9 19/27/9 20/28/9
f 33/29/10 5/6/10 14/20/10 34/30/10
f 17/31/11 18/32/11 20/28/11 19/27/11
f 12/15/12 4/3/12 17/31/12 19/27/12
f 4/3/13 3/2/13 18/32/13 17/31/13
f 3/2/14 9/16/14 20/28/14 18/32/14
f 7/10/10 21/9/10 23/21/10 16/24/10
f 31/33/15 22/12/15 24/22/15 32/34/15
f 30/35/16 32/34/16 24/22/16 23/21/16
f 29/36/17 21/9/17 22/12/17 31/33/17
f 39/37/18 25/25/18 27/26/18 40/38/18
f 2/5/19 26/39/19 28/40/19 11/17/19
f 10/18/20 11/17/20 28/40/20 27/26/20
f 1/8/21 25/25/21 26/39/21 2/5/21
f 33/29/22 29/36/22 31/33/22 35/41/22
f 34/30/23 36/42/23 32/34/23 30/35/23
f 35/41/24 31/33/24 32/34/24 36/42/24
f 21/9/25 29/36/25 30/35/25 23/21/25
f 6/7/8 35/41/8 36/42/8 13/19/8
f 14/20/5 13/19/5 36/42/5 34/30/5
f 5/6/3 33/29/3 35/41/3 6/7/3
f 29/36/26 33/29/26 34/30/26 30/35/26
f 43/1/27 39/37/27 40/38/27 44/13/27
f 26/39/28 37/43/28 38/44/28 28/40/28
f 27/26/29 28/40/29 38/44/29 40/38/29
f 25/25/30 39/37/30 37/43/30 26/39/30
f 3/2/7 43/1/7 44/13/7 9/16/7
f 37/43/31 41/4/31 42/14/31 38/44/31
f 40/38/32 38/44/32 42/14/32 44/13/32
f 39/37/33 43/1/33 41/4/33 37/43/33
