# Blender v3.0.0 OBJ File: ''
# www.blender.org
mtllib palm1.mtl
o Cylinder
v -4.073149 -0.663584 -0.584594
v -4.073149 1.220294 -0.084605
v -2.646574 -0.663584 0.451873
v -3.122092 1.220294 0.606378
v -3.191477 -0.663584 2.128911
v -3.485363 1.220294 1.724412
v -4.954820 -0.663584 2.128911
v -4.660934 1.220294 1.724412
v -5.499722 -0.663584 0.451872
v -5.024205 1.220294 0.606378
v -3.122092 5.625054 0.606378
v -4.073149 5.625054 -0.084605
v -3.485363 5.625054 1.724412
v -4.660934 5.625054 1.724412
v -5.024205 5.625054 0.606378
v -2.109959 11.524578 1.041350
v -2.854250 11.524578 0.500591
v -2.394253 11.524578 1.916316
v -3.314247 11.524578 1.916316
v -3.598541 11.524578 1.041350
v -3.838139 18.964897 1.157639
v -4.504069 18.964897 0.673812
v -4.092502 18.964897 1.940487
v -4.915637 18.964897 1.940487
v -5.170000 18.964897 1.157639
vt 1.000000 0.500000
vt 1.000000 1.000000
vt 0.800000 1.000000
vt 0.800000 0.500000
vt 0.600000 1.000000
vt 0.600000 0.500000
vt 0.400000 1.000000
vt 0.400000 0.500000
vt 0.800000 1.000000
vt 0.600000 1.000000
vt 0.200000 1.000000
vt 0.200000 0.500000
vt 0.000000 1.000000
vt 0.000000 0.500000
vt 0.750000 0.490000
vt 0.978254 0.324164
vt 0.891068 0.055836
vt 0.608932 0.055836
vt 0.521746 0.324164
vt 0.200000 1.000000
vt 0.400000 1.000000
vt 0.400000 1.000000
vt 0.200000 1.000000
vt 0.000000 1.000000
vt 1.000000 1.000000
vt 0.000000 1.000000
vt 0.200000 1.000000
vt 0.000000 1.000000
vt 0.800000 1.000000
vt 0.600000 1.000000
vt 1.000000 1.000000
vt 0.478254 0.324164
vt 0.250000 0.490000
vt 0.021746 0.324164
vt 0.108932 0.055836
vt 0.391068 0.055836
vt 0.600000 1.000000
vt 0.400000 1.000000
vt 1.000000 1.000000
vt 0.800000 1.000000
vn 0.5747 0.2099 -0.7910
vn 0.9299 0.2099 0.3021
vn 0.0000 0.2099 0.9777
vn 0.9511 0.0000 0.3090
vn -0.9299 0.2099 0.3021
vn -0.5747 0.2099 -0.7910
vn 0.0000 -1.0000 -0.0000
vn -0.9313 0.2027 0.3026
vn -0.5878 0.0000 -0.8090
vn 0.5878 0.0000 -0.8090
vn 0.0000 0.0000 1.0000
vn -0.9511 0.0000 0.3090
vn -0.5842 -0.1108 -0.8040
vn 0.9350 -0.1828 0.3038
vn -0.5762 0.1977 -0.7930
vn 0.0000 -0.0325 0.9995
vn 0.5873 -0.0412 -0.8083
vn 0.0000 1.0000 -0.0000
vn 0.0000 -0.0032 1.0000
vn 0.5814 0.1475 -0.8002
vn -0.9316 -0.2015 0.3027
vn 0.9296 0.2112 0.3020
usemtl None
s off
f 1/1/1 2/2/1 4/3/1 3/4/1
f 3/4/2 4/3/2 6/5/2 5/6/2
f 5/6/3 6/5/3 8/7/3 7/8/3
f 6/5/4 4/3/4 11/9/4 13/10/4
f 7/8/5 8/7/5 10/11/5 9/12/5
f 9/12/6 10/11/6 2/13/6 1/14/6
f 1/15/7 3/16/7 5/17/7 7/18/7 9/19/7
f 15/20/8 14/21/8 19/22/8 20/23/8
f 2/13/9 10/11/9 15/20/9 12/24/9
f 4/3/10 2/2/10 12/25/10 11/9/10
f 8/7/11 6/5/11 13/10/11 14/21/11
f 10/11/12 8/7/12 14/21/12 15/20/12
f 17/26/13 20/23/13 25/27/13 22/28/13
f 13/10/14 11/9/14 16/29/14 18/30/14
f 12/24/15 15/20/15 20/23/15 17/26/15
f 14/21/16 13/10/16 18/30/16 19/22/16
f 11/9/17 12/25/17 17/31/17 16/29/17
f 21/32/18 22/33/18 25/34/18 24/35/18 23/36/18
f 19/22/19 18/30/19 23/37/19 24/38/19
f 16/29/20 17/31/20 22/39/20 21/40/20
f 20/23/21 19/22/21 24/38/21 25/27/21
f 18/30/22 16/29/22 21/40/22 23/37/22
