# Blender v3.0.0 OBJ File: ''
# www.blender.org
mtllib palm2.mtl
o Cylinder.001
v -11.467753 -0.663584 -0.584594
v -11.467753 1.220294 -0.084605
v -10.041179 -0.663584 0.451873
v -10.516697 1.220294 0.606378
v -10.586082 -0.663584 2.128911
v -10.879969 1.220294 1.724412
v -12.349424 -0.663584 2.128911
v -12.055539 1.220294 1.724412
v -12.894327 -0.663584 0.451872
v -12.418810 1.220294 0.606378
v -10.516697 5.625054 0.606378
v -11.467753 5.625054 -0.084605
v -10.879969 5.625054 1.724412
v -12.055539 5.625054 1.724412
v -12.418810 5.625054 0.606378
v -12.396925 14.098055 3.597201
v -13.084853 14.098055 3.097392
v -12.659691 14.098055 4.405909
v -13.510015 14.098055 4.405909
v -13.772781 14.098055 3.597201
v -11.232743 18.964897 1.157639
v -11.898674 18.964897 0.673812
v -11.487106 18.964897 1.940487
v -12.310242 18.964897 1.940487
v -12.564605 18.964897 1.157639
vt 1.000000 0.500000
vt 1.000000 1.000000
vt 0.800000 1.000000
vt 0.800000 0.500000
vt 0.600000 1.000000
vt 0.600000 0.500000
vt 0.400000 1.000000
vt 0.400000 0.500000
vt 0.800000 1.000000
vt 0.600000 1.000000
vt 0.200000 1.000000
vt 0.200000 0.500000
vt 0.000000 1.000000
vt 0.000000 0.500000
vt 0.750000 0.490000
vt 0.978254 0.324164
vt 0.891068 0.055836
vt 0.608932 0.055836
vt 0.521746 0.324164
vt 0.200000 1.000000
vt 0.400000 1.000000
vt 0.400000 1.000000
vt 0.200000 1.000000
vt 0.000000 1.000000
vt 1.000000 1.000000
vt 0.000000 1.000000
vt 0.200000 1.000000
vt 0.000000 1.000000
vt 0.800000 1.000000
vt 0.600000 1.000000
vt 1.000000 1.000000
vt 0.478254 0.324164
vt 0.250000 0.490000
vt 0.021746 0.324164
vt 0.108932 0.055836
vt 0.391068 0.055836
vt 0.600000 1.000000
vt 0.400000 1.000000
vt 1.000000 1.000000
vt 0.800000 1.000000
vn 0.5747 0.2099 -0.7910
vn 0.9299 0.2099 0.3021
vn 0.0000 0.2099 0.9777
vn 0.9511 0.0000 0.3090
vn -0.9299 0.2099 0.3021
vn -0.5747 0.2099 -0.7910
vn 0.0000 -1.0000 -0.0000
vn -0.9202 -0.2526 0.2990
vn -0.5878 0.0000 -0.8090
vn 0.5878 0.0000 -0.8090
vn 0.0000 0.0000 1.0000
vn -0.9511 0.0000 0.3090
vn -0.5689 -0.2513 -0.7831
vn 0.9462 0.1014 0.3074
vn -0.5773 0.1882 -0.7946
vn 0.0000 -0.3017 0.9534
vn 0.5427 0.3841 -0.7470
vn 0.0000 1.0000 0.0000
vn 0.0000 0.4519 0.8921
vn 0.5159 -0.4793 -0.7100
vn -0.8858 0.3641 0.2878
vn 0.9486 -0.0724 0.3082
usemtl None
s off
f 1/1/1 2/2/1 4/3/1 3/4/1
f 3/4/2 4/3/2 6/5/2 5/6/2
f 5/6/3 6/5/3 8/7/3 7/8/3
f 6/5/4 4/3/4 11/9/4 13/10/4
f 7/8/5 8/7/5 10/11/5 9/12/5
f 9/12/6 10/11/6 2/13/6 1/14/6
f 1/15/7 3/16/7 5/17/7 7/18/7 9/19/7
f 15/20/8 14/21/8 19/22/8 20/23/8
f 2/13/9 10/11/9 15/20/9 12/24/9
f 4/3/10 2/2/10 12/25/10 11/9/10
f 8/7/11 6/5/11 13/10/11 14/21/11
f 10/11/12 8/7/12 14/21/12 15/20/12
f 17/26/13 20/23/13 25/27/13 22/28/13
f 13/10/14 11/9/14 16/29/14 18/30/14
f 12/24/15 15/20/15 20/23/15 17/26/15
f 14/21/16 13/10/16 18/30/16 19/22/16
f 11/9/17 12/25/17 17/31/17 16/29/17
f 21/32/18 22/33/18 25/34/18 24/35/18 23/36/18
f 19/22/19 18/30/19 23/37/19 24/38/19
f 16/29/20 17/31/20 22/39/20 21/40/20
f 20/23/21 19/22/21 24/38/21 25/27/21
f 18/30/22 16/29/22 21/40/22 23/37/22
